<svg width="24" height="32" viewBox="0 0 24 32" fill="none" xmlns="http://www.w3.org/2000/svg">
<path d="M10.7668 31.3544C1.68563 18.1894 0 16.8383 0 12C0 5.37256 5.37256 0 12 0C18.6274 0 24 5.37256 24 12C24 16.8383 22.3144 18.1894 13.2332 31.3544C12.6373 32.2153 11.3626 32.2152 10.7668 31.3544Z" fill="#DD6C49"/>
<circle cx="11.9712" cy="12.6366" r="8.80154" fill="white"/>
<path d="M13.1301 9.18288C13.3108 9.18288 13.4874 9.1293 13.6377 9.02891C13.7879 8.92853 13.905 8.78584 13.9742 8.6189C14.0433 8.45196 14.0614 8.26827 14.0262 8.09105C13.9909 7.91383 13.9039 7.75104 13.7761 7.62327C13.6483 7.4955 13.4856 7.40849 13.3083 7.37324C13.1311 7.33799 12.9474 7.35608 12.7805 7.42523C12.6135 7.49437 12.4709 7.61147 12.3705 7.76171C12.2701 7.91195 12.2165 8.08859 12.2165 8.26928C12.2165 8.51159 12.3128 8.74396 12.4841 8.9153C12.6554 9.08663 12.8878 9.18288 13.1301 9.18288ZM13.054 11.4859C13.162 11.5724 13.2963 11.6194 13.4346 11.6192H14.6528C14.8143 11.6192 14.9692 11.555 15.0834 11.4408C15.1977 11.3265 15.2618 11.1716 15.2618 11.0101C15.2618 10.8485 15.1977 10.6936 15.0834 10.5794C14.9692 10.4652 14.8143 10.401 14.6528 10.401H13.6482L12.2926 9.31612C12.182 9.2273 12.0438 9.17997 11.9019 9.18233C11.7601 9.1847 11.6235 9.2366 11.5159 9.32906L9.38415 11.1563C9.31275 11.2175 9.2565 11.2944 9.2198 11.381C9.1831 11.4676 9.16696 11.5615 9.17264 11.6554C9.17832 11.7493 9.20566 11.8406 9.25253 11.9221C9.2994 12.0037 9.36452 12.0733 9.44278 12.1254L10.9984 13.1631V15.2736C10.9984 15.4351 11.0625 15.59 11.1768 15.7042C11.291 15.8185 11.4459 15.8826 11.6074 15.8826C11.769 15.8826 11.9239 15.8185 12.0381 15.7042C12.1523 15.59 12.2165 15.4351 12.2165 15.2736V12.8373C12.2165 12.737 12.1917 12.6383 12.1444 12.55C12.0971 12.4616 12.0287 12.3862 11.9453 12.3306L11.1581 11.8059L12.2668 10.8557L13.054 11.4859ZM15.2618 12.2282C14.78 12.2282 14.309 12.3711 13.9083 12.6388C13.5077 12.9065 13.1954 13.287 13.011 13.7322C12.8266 14.1773 12.7784 14.6672 12.8724 15.1398C12.9664 15.6124 13.1984 16.0465 13.5391 16.3872C13.8799 16.7279 14.314 16.9599 14.7865 17.0539C15.2591 17.1479 15.749 17.0997 16.1942 16.9153C16.6393 16.7309 17.0198 16.4186 17.2875 16.018C17.5552 15.6174 17.6981 15.1463 17.6981 14.6645C17.6981 14.0183 17.4414 13.3987 16.9845 12.9418C16.5277 12.4849 15.908 12.2282 15.2618 12.2282ZM15.2618 15.8826C15.0209 15.8826 14.7854 15.8112 14.5851 15.6773C14.3848 15.5435 14.2286 15.3532 14.1364 15.1306C14.0442 14.9081 14.0201 14.6631 14.0671 14.4268C14.1141 14.1905 14.2301 13.9735 14.4005 13.8031C14.5708 13.6328 14.7879 13.5168 15.0242 13.4698C15.2605 13.4228 15.5054 13.4469 15.728 13.5391C15.9506 13.6313 16.1408 13.7874 16.2747 13.9877C16.4085 14.188 16.48 14.4236 16.48 14.6645C16.48 14.9876 16.3516 15.2974 16.1232 15.5258C15.8947 15.7543 15.5849 15.8826 15.2618 15.8826ZM7.95304 12.2282C7.47119 12.2282 7.00016 12.3711 6.59952 12.6388C6.19888 12.9065 5.88662 13.287 5.70222 13.7322C5.51782 14.1773 5.46958 14.6672 5.56358 15.1398C5.65759 15.6124 5.88962 16.0465 6.23034 16.3872C6.57105 16.7279 7.00516 16.9599 7.47775 17.0539C7.95034 17.1479 8.44019 17.0997 8.88536 16.9153C9.33053 16.7309 9.71102 16.4186 9.97872 16.018C10.2464 15.6174 10.3893 15.1463 10.3893 14.6645C10.3893 14.0183 10.1326 13.3987 9.67574 12.9418C9.21885 12.4849 8.59918 12.2282 7.95304 12.2282ZM7.95304 15.8826C7.71211 15.8826 7.4766 15.8112 7.27628 15.6773C7.07596 15.5435 6.91983 15.3532 6.82763 15.1306C6.73543 14.9081 6.71131 14.6631 6.75831 14.4268C6.80531 14.1905 6.92133 13.9735 7.09169 13.8031C7.26205 13.6328 7.4791 13.5168 7.71539 13.4698C7.95169 13.4228 8.19661 13.4469 8.4192 13.5391C8.64178 13.6313 8.83203 13.7874 8.96588 13.9877C9.09973 14.188 9.17117 14.4236 9.17117 14.6645C9.17117 14.9876 9.04283 15.2974 8.81439 15.5258C8.58594 15.7543 8.27611 15.8826 7.95304 15.8826Z" fill="#DD6C49"/>
</svg>
