<svg width="24" height="32" viewBox="0 0 24 32" fill="none" xmlns="http://www.w3.org/2000/svg">
<path d="M10.7668 31.3544C1.68563 18.1894 0 16.8383 0 12C0 5.37256 5.37256 0 12 0C18.6274 0 24 5.37256 24 12C24 16.8383 22.3144 18.1894 13.2332 31.3544C12.6373 32.2153 11.3626 32.2152 10.7668 31.3544Z" fill="#C93838"/>
<circle cx="11.9712" cy="12.6366" r="8.80154" fill="white"/>
<path d="M11.7671 7.93065C11.783 8.02422 12.0876 9.81204 12.0876 10.4949C12.0876 11.5361 11.5341 12.2788 10.7159 12.5774L10.9727 17.3177C10.9866 17.5904 10.7696 17.8214 10.4949 17.8214H9.22072C8.94797 17.8214 8.72897 17.5924 8.7429 17.3177L8.99973 12.5774C8.17948 12.2788 7.62801 11.5342 7.62801 10.4949C7.62801 9.81005 7.93261 8.02422 7.94854 7.93065C8.01225 7.5265 8.85041 7.52053 8.90217 7.95255V10.7637C8.92806 10.8314 9.2028 10.8274 9.22072 10.7637C9.24859 10.26 9.378 7.99237 9.37999 7.9406C9.44569 7.5265 10.2699 7.5265 10.3336 7.9406C10.3376 7.99436 10.465 10.26 10.4929 10.7637C10.5108 10.8274 10.7875 10.8314 10.8114 10.7637V7.95255C10.8632 7.52252 11.7034 7.5265 11.7671 7.93065ZM14.1402 13.6186L13.8416 17.3038C13.8177 17.5825 14.0387 17.8214 14.3174 17.8214H15.4323C15.6971 17.8214 15.9101 17.6084 15.9101 17.3436V8.10585C15.9101 7.84305 15.6971 7.62803 15.4323 7.62803C13.7898 7.62803 11.0245 11.1818 14.1402 13.6186Z" fill="#C93838"/>
</svg>
