<svg width="24" height="32" viewBox="0 0 24 32" fill="none" xmlns="http://www.w3.org/2000/svg">
<path d="M10.7668 31.3544C1.68563 18.1894 0 16.8383 0 12C0 5.37256 5.37256 0 12 0C18.6274 0 24 5.37256 24 12C24 16.8383 22.3144 18.1894 13.2332 31.3544C12.6373 32.2153 11.3626 32.2152 10.7668 31.3544Z" fill="#2DA588"/>
<circle cx="12.3222" cy="12.6366" r="8.80154" fill="white"/>
<path d="M12.1784 12.4093C13.7054 12.4093 14.9429 11.1718 14.9429 9.64482C14.9429 8.11785 13.7054 6.88029 12.1784 6.88029C10.6514 6.88029 9.41388 8.11785 9.41388 9.64482C9.41388 11.1718 10.6514 12.4093 12.1784 12.4093ZM14.1136 13.1005H13.7529C13.2734 13.3208 12.7399 13.446 12.1784 13.446C11.6169 13.446 11.0856 13.3208 10.6039 13.1005H10.2432C8.64067 13.1005 7.34048 14.4007 7.34048 16.0032V16.9017C7.34048 17.474 7.80484 17.9384 8.37718 17.9384H15.9796C16.552 17.9384 17.0163 17.474 17.0163 16.9017V16.0032C17.0163 14.4007 15.7161 13.1005 14.1136 13.1005Z" fill="#2DA588"/>
</svg>
